# xmcd CD database file
#
# Track frame offsets:
#	150
#	21994
#	45214
#	56567
#	73563
#	86728
#	105899
#	126885
#	150294
#	170076
#	181885
#	199932
#	216040
#	230188
#	249335
#	260457
#	276755
#	293831
#	314178
#	333469
#
# Disc length: 4680 seconds
#
# Revision: 0
# Processed by: cddbd v1.5.2PL0 Copyright (c) Steve Scherf et al.
# Submitted via: CDex 1.70beta2
#
DISCID=23124614
DTITLE=100 Tubes Blues - 100 Tubes Blues - 1960's and 1970's
DYEAR=1979
DGENRE=Blues
TTITLE0=Buddy Guy and Junior Wells - Help me
TTITLE1=Albert Collins - Cold, cold feeling
TTITLE2=Homesick James - I've got to move
TTITLE3=Big Walter Horton with Carey Bell - Have a good time
TTITLE4=Albert King - Don't throw your love on me so strong
TTITLE5=Joe Turner - Money first
TTITLE6=Sunnyland Slim with Jimmy Dawkins - Sweet Laura take 4
TTITLE7=Luther Allison - Key to the highway
TTITLE8=Koko Taylor - Wang Dang Doodle
TTITLE9=Freddy King - Hideaway
TTITLE10=Mighty Joe Young - Sweet home Chicago
TTITLE11=Hound Dog Taylor and The Houserockers - Give me back my wig
TTITLE12=Luther Johnson - Born in Georgia
TTITLE13=Lonny Brooks - Don't answer the door
TTITLE14=Smokey Smothers - I've been drinking Muddy Water
TTITLE15=The Aces - Kansas City
TTITLE16=Cousin Joe - Goin' down slow
TTITLE17=Carey Bell - Laundromat blues
TTITLE18=Hubert Sumlin - Broke and hungry
TTITLE19=Willie Mabon - Worry blues
EXTD=YEAR: 1979
EXTT0=
EXTT1=
EXTT2=
EXTT3=
EXTT4=
EXTT5=
EXTT6=
EXTT7=
EXTT8=
EXTT9=
EXTT10=
EXTT11=
EXTT12=
EXTT13=
EXTT14=
EXTT15=
EXTT16=
EXTT17=
EXTT18=
EXTT19=
PLAYORDER=
